<?xml version="1.0" standalone="no"?>
<!DOCTYPE svg PUBLIC "-//W3C//DTD SVG 20010904//EN"
 "http://www.w3.org/TR/2001/REC-SVG-20010904/DTD/svg10.dtd">
<svg version="1.0" xmlns="http://www.w3.org/2000/svg"
 width="192.000000pt" height="192.000000pt" viewBox="0 0 192.000000 192.000000"
 preserveAspectRatio="xMidYMid meet">

<g transform="translate(0.000000,192.000000) scale(0.100000,-0.100000)"
fill="#000000" stroke="none">
<path d="M855 1561 c-300 -74 -515 -348 -515 -656 0 -103 24 -203 73 -305 53
-111 175 -236 284 -293 82 -43 204 -77 274 -77 l47 0 -5 77 c-3 50 1 97 10
129 l14 52 -76 29 c-52 19 -77 34 -79 47 -7 34 19 35 99 6 l77 -28 38 55 c48
70 103 117 184 156 36 17 66 32 68 32 1 1 -4 36 -12 79 -17 86 -13 108 18 104
18 -3 23 -14 35 -84 l14 -81 101 -6 c60 -3 116 -11 137 -21 l37 -15 7 35 c11
62 6 190 -10 261 -9 37 -34 106 -57 153 -58 119 -177 239 -298 297 -150 72
-315 91 -465 54z"/>
<path d="M1470 670 c-24 -24 -25 -38 -4 -68 17 -24 62 -30 82 -10 20 20 14 65
-10 82 -30 21 -44 20 -68 -4z"/>
<path d="M1142 398 c-21 -21 -14 -66 12 -83 53 -35 115 34 70 79 -18 19 -65
21 -82 4z"/>
</g>
</svg>
