<?xml version="1.0" encoding="UTF-8" standalone="no"?>
<svg
        height="13"
        viewBox="0 0 19.997596 19.997596"
        width="13"
        fill="#6e6e6e"
        version="1.1"
        id="svg57"
        xmlns="http://www.w3.org/2000/svg"
>
  <defs
     id="defs61" />
  <path
     d="M -2.0012019,-2.0012019 V 21.998798 H 21.998798 V -2.0012019 Z M 9.9879811,3.1942749e-8 C 15.517964,3.1942749e-8 19.997596,4.4788147 19.997596,9.9987981 c 0,5.5199829 -4.479632,9.9987979 -10.0096149,9.9987979 C 4.4679974,19.997596 3.1942749e-8,15.518781 3.1942749e-8,9.9987981 3.1942749e-8,4.4788147 4.4679974,3.1942749e-8 9.9879811,3.1942749e-8 Z M 9.9987981,1.9975962 c -4.4199867,0 -8.0012019,3.5812152 -8.0012019,8.0012019 C 1.9975962,14.418785 5.5788114,18 9.9987981,18 c 0.03514,0 0.06953,-0.0032 0.1045669,-0.0036 -0.2384709,-1.015619 -0.1846139,-2.093658 0.1875,-3.100961 L 8.5637021,14.268035 c -0.150657,-0.06287 -0.23329,-0.23049 -0.183894,-0.389423 0.05322,-0.162148 0.230656,-0.251935 0.396634,-0.201923 l 1.7632209,0.638221 c 0.706555,-1.382639 1.941156,-2.41807 3.425481,-2.873798 L 13.640625,9.5949581 c -0.02105,-0.165097 0.08951,-0.314009 0.248798,-0.34976 0.02079,-0.0044 0.04071,-0.0071 0.0613,-0.0072 0.144126,-7.34e-4 0.276541,0.09991 0.310096,0.248798 l 0.317308,1.8100959 c 1.111228,-0.201444 2.238496,-0.04481 3.234375,0.418269 0.120965,-0.553299 0.1875,-1.126678 0.1875,-1.7163459 0,-4.4199867 -3.581215,-8.0012019 -8.0012019,-8.0012019 z M 15.811298,12.594952 c -0.02501,-3.98e-4 -0.05077,0.001 -0.07572,0.0036 -0.119749,0.01248 -0.23623,0.06107 -0.335337,0.14423 -0.264284,0.221761 -0.297482,0.615524 -0.07572,0.879808 0.221761,0.264285 0.615523,0.297482 0.879808,0.07572 0.264284,-0.221761 0.297482,-0.615523 0.07572,-0.879807 -0.121276,-0.144531 -0.293666,-0.22077 -0.46875,-0.223558 z m -3.829327,3.21274 c -0.02501,-3.98e-4 -0.05077,0.001 -0.07572,0.0036 -0.119749,0.01248 -0.23623,0.06107 -0.335337,0.144231 -0.264284,0.221761 -0.297482,0.615523 -0.07572,0.879807 0.221761,0.264285 0.615523,0.297483 0.879808,0.07572 0.264284,-0.221761 0.297482,-0.615524 0.07572,-0.879808 -0.121276,-0.144531 -0.293666,-0.220769 -0.46875,-0.223558 z"
     style="fill:none"
     id="path7" />
  <path
     d="m 13.950721,9.2379811 c -0.02059,1.05e-4 -0.04051,0.0028 -0.0613,0.0072 -0.159285,0.03575 -0.269844,0.184663 -0.248798,0.34976 l 0.324519,1.8461539 c -1.484327,0.455728 -2.718925,1.491157 -3.425481,2.873798 L 8.7764401,13.676672 c -0.165978,-0.05001 -0.343409,0.03978 -0.396634,0.201923 -0.0494,0.158934 0.03324,0.326556 0.183894,0.389423 l 1.7271629,0.627404 c -0.3721139,1.007304 -0.4259709,2.085341 -0.1875,3.100961 3.783576,-0.04875 6.930587,-2.720149 7.709135,-6.28125 -0.99588,-0.463079 -2.123145,-0.619713 -3.234375,-0.418269 L 14.260815,9.4867681 c -0.03355,-0.14889 -0.16597,-0.249532 -0.310096,-0.248798 z m 1.860577,3.3569709 c 0.175084,0.0028 0.347474,0.07903 0.46875,0.223558 0.221761,0.264284 0.188564,0.658046 -0.07572,0.879807 -0.264285,0.221762 -0.658047,0.188564 -0.879808,-0.07572 -0.221761,-0.264285 -0.188563,-0.658046 0.07572,-0.879808 0.09911,-0.08316 0.215588,-0.131749 0.335337,-0.14423 0.02495,-0.0026 0.05071,-0.004 0.07572,-0.0036 z m -3.829327,3.21274 c 0.175084,0.0028 0.347474,0.07903 0.46875,0.223558 0.221761,0.264285 0.188564,0.658046 -0.07572,0.879808 -0.264285,0.221761 -0.658046,0.188563 -0.879808,-0.07572 -0.221761,-0.264284 -0.188563,-0.658046 0.07572,-0.879807 0.09911,-0.08316 0.215588,-0.13175 0.335337,-0.144231 0.02495,-0.0026 0.05071,-0.004 0.07572,-0.0036 z"
     style="fill:#ced0d6;fill-opacity:1;stroke:none;stroke-width:0.0775385;stroke-dasharray:none;stroke-opacity:1"
     id="path6" />
  <path
     d="M 9.9879811,3.1942749e-8 C 4.4679863,3.1942749e-8 3.1942749e-8,4.4788036 3.1942749e-8,9.9987981 3.1942749e-8,15.518792 4.4679863,19.997596 9.9879811,19.997596 c 5.5299939,0 10.0096149,-4.478804 10.0096149,-9.9987979 C 19.997596,4.4788036 15.517975,3.1942749e-8 9.9879811,3.1942749e-8 Z M 9.9987981,1.9975962 C 14.418794,1.9975962 18,5.5788025 18,9.9987981 18,14.418794 14.418794,18 9.9987981,18 5.5788025,18 1.9975962,14.418794 1.9975962,9.9987981 c 0,-4.4199956 3.5812063,-8.0012019 8.0012019,-8.0012019 z"
     style="fill:#ced0d6;fill-opacity:1;stroke:none;stroke-width:0.0775385;stroke-dasharray:none;stroke-opacity:1"
     id="path5" />
</svg>
