<?xml version="1.0" encoding="UTF-8" standalone="no"?>
<svg xmlns="http://www.w3.org/2000/svg"
     width="24px" height="24px"
     fill="#6e6e6e"
     viewBox="0 0 1000 1000">
  <path id="Selection" stroke="black" stroke-width="1"
        d="M 83.00,708.00
           C 83.00,708.00 83.00,400.00 83.00,400.00
             83.00,400.00 83.00,246.00 83.00,246.00
             83.54,200.34 123.55,166.07 168.00,166.00
             168.00,166.00 917.00,166.00 917.00,166.00
             917.00,166.00 917.00,250.00 917.00,250.00
             917.00,250.00 167.00,250.00 167.00,250.00
             167.00,250.00 167.00,708.00 167.00,708.00
             167.00,708.00 584.00,708.00 584.00,708.00
             584.00,708.00 584.00,834.00 584.00,834.00
             584.00,834.00 0.00,834.00 0.00,834.00
             0.00,834.00 0.00,708.00 0.00,708.00
             0.00,708.00 83.00,708.00 83.00,708.00 Z
           M 746.00,289.00
           C 746.00,289.00 778.00,290.00 778.00,290.00
             778.00,290.00 831.00,290.00 831.00,290.00
             831.00,290.00 884.00,290.00 884.00,290.00
             884.00,290.00 916.00,289.00 916.00,289.00
             916.00,289.00 916.00,372.00 916.00,372.00
             916.00,372.00 944.00,372.00 944.00,372.00
             961.01,372.00 973.30,370.65 986.71,383.59
             991.21,387.93 994.79,393.09 996.91,399.00
             998.85,404.38 998.99,407.42 999.00,413.00
             999.00,413.00 999.00,535.00 999.00,535.00
             999.00,535.00 998.00,550.00 998.00,550.00
             998.00,550.00 998.00,638.00 998.00,638.00
             997.96,662.02 979.71,678.89 956.00,679.00
             956.00,679.00 916.00,679.00 916.00,679.00
             916.00,679.00 916.00,762.00 916.00,762.00
             916.00,762.00 746.00,762.00 746.00,762.00
             746.00,762.00 746.00,679.00 746.00,679.00
             746.00,679.00 707.00,679.00 707.00,679.00
             689.02,678.97 671.82,668.90 666.44,651.00
             664.64,645.00 664.01,640.23 664.00,634.00
             664.00,634.00 664.00,516.00 664.00,516.00
             664.00,516.00 665.00,501.00 665.00,501.00
             665.00,501.00 665.00,417.00 665.00,417.00
             665.04,390.93 681.22,372.04 708.00,372.00
             708.00,372.00 746.00,372.00 746.00,372.00
             746.00,372.00 746.00,289.00 746.00,289.00 Z
           M 915.00,456.00
           C 915.00,456.00 749.00,456.00 749.00,456.00
             749.00,456.00 749.00,534.00 749.00,534.00
             749.00,534.00 748.00,548.00 748.00,548.00
             748.00,548.00 748.00,595.00 748.00,595.00
             748.00,595.00 914.00,595.00 914.00,595.00
             914.00,595.00 914.00,517.00 914.00,517.00
             914.00,517.00 915.00,503.00 915.00,503.00
             915.00,503.00 915.00,456.00 915.00,456.00 Z" />
</svg>
