<?xml version="1.0" encoding="UTF-8" standalone="no"?>
<svg
        height="13px"
        viewBox="0 0 24 24"
        width="13px"
        fill="#afb1b3"
        version="1.1"
        id="svg57"
        xmlns="http://www.w3.org/2000/svg"
>
  <defs
     id="defs61" />
  <path
     d="M0 0h24v24H0z"
     fill="none"
     id="path51" />
  <path
     d="M11.99 2C6.47 2 2 6.48 2 12s4.47 10 9.99 10C17.52 22 22 17.52 22 12S17.52 2 11.99 2zM12 20c-4.42 0-8-3.58-8-8s3.58-8 8-8 8 3.58 8 8-3.58 8-8 8z"
     id="path53" />
  <g
     id="g279"
     transform="matrix(0.38302222,-0.3213938,0.3213938,0.38302222,6.792763,15.32245)">
    <g
       id="g277">
      <path
         d="M 17.6,9.48 19.44,6.3 C 19.6,5.99 19.48,5.61 19.18,5.45 18.89,5.3 18.53,5.39 18.35,5.67 L 16.47,8.91 C 13.61,7.7 10.39,7.7 7.53,8.91 L 5.65,5.67 C 5.46,5.38 5.07,5.29 4.78,5.47 4.5,5.65 4.41,6.01 4.56,6.3 L 6.4,9.48 C 3.3,11.25 1.28,14.44 1,18 H 23 C 22.72,14.44 20.7,11.25 17.6,9.48 Z M 7,15.25 c -0.69,0 -1.25,-0.56 -1.25,-1.25 0,-0.69 0.56,-1.25 1.25,-1.25 0.69,0 1.25,0.56 1.25,1.25 0,0.69 -0.56,1.25 -1.25,1.25 z m 10,0 c -0.69,0 -1.25,-0.56 -1.25,-1.25 0,-0.69 0.56,-1.25 1.25,-1.25 0.69,0 1.25,0.56 1.25,1.25 0,0.69 -0.56,1.25 -1.25,1.25 z"
         id="path275" />
    </g>
  </g>
</svg>
